<?xml version="1.0" standalone="no"?>
<!DOCTYPE svg PUBLIC "-//W3C//DTD SVG 20010904//EN" "http://www.w3.org/TR/2001/REC-SVG-20010904/DTD/svg10.dtd">
<svg version="1.0" xmlns="http://www.w3.org/2000/svg"
 viewBox="0 0 512 512" width="20" height="20" preserveAspectRatio="xMidYMid meet">
  <g transform="translate(0.000000,512.000000) scale(0.1,-0.1)"
fill="#FFFFFF" stroke="none"> <!-- Change fill to white -->
<path d="M3408 3157 c-255 -305 -548 -665 -548 -673 0 -3 46 -63 103 -132 57
-70 152 -188 212 -262 143 -177 387 -470 391 -470 8 0 -34 75 -53 95 -87 96
-295 407 -333 500 -7 17 -18 44 -26 60 -26 58 -36 125 -23 164 13 40 69 130
114 184 6 7 44 55 85 107 41 52 83 102 92 110 37 33 131 157 150 198 26 57 25
142 -1 217 -11 32 -22 59 -24 61 -2 2 -64 -70 -139 -159z"/>
<path d="M1577 3173 c64 -64 79 -74 81 -58 6 33 -17 93 -45 114 -17 14 -40 21
-69 21 l-44 0 77 -77z"/>
<path d="M2270 3233 c0 -13 413 -553 424 -553 2 0 24 26 49 58 45 58 45 58 18
54 -23 -3 -34 4 -65 42 -38 45 -66 116 -59 148 10 42 172 65 235 32 26 -14 29
-20 26 -50 -2 -19 -1 -31 3 -26 23 25 229 292 229 297 0 3 -193 5 -430 5 -236
0 -430 -3 -430 -7z"/>
<path d="M1950 2475 c0 -347 5 -648 10 -669 5 -22 23 -53 39 -70 l31 -31 143
-2 c86 -1 130 1 110 6 -55 14 -96 44 -109 81 -24 68 -10 637 18 715 13 34 20
40 46 43 47 5 92 -22 184 -109 46 -43 84 -79 84 -79 1 0 9 11 18 25 16 25 16
25 -191 267 -115 134 -244 286 -287 338 -44 52 -83 99 -88 105 -4 5 -8 -274
-8 -620z"/>
<path d="M2648 2268 c-19 -24 -40 -53 -46 -65 -13 -23 -16 -280 -6 -393 l6
-65 212 3 c116 1 221 5 234 7 37 9 29 58 -20 124 -45 61 -313 398 -333 419 -9
10 -19 5 -47 -30z m253 -404 c15 -15 25 -33 22 -40 -7 -19 -63 -18 -90 1 -19
13 -21 19 -11 40 15 32 45 32 79 -1z"/>
<path d="M2350 1638 l0 -58 -392 0 -393 0 50 -25 c28 -14 84 -45 125 -69 112
-66 182 -79 430 -80 221 0 257 6 280 49 17 31 7 65 -37 134 -20 31 -42 67 -50
81 -12 23 -13 21 -13 -32z"/>
<path d="M2497 1549 c25 -42 102 -105 154 -127 39 -15 80 -17 388 -14 370 3
456 12 518 55 35 23 58 73 47 100 -6 16 -55 17 -566 17 l-559 0 18 -31z"/>
</g>
</svg>
